# xmcd
#
# Track frame offsets:
#	150
#	12257
#	23151
#	32616
#	44730
#	56516
#	71733
#	89710
#	102260
#	119411
#	128750
#	137839
#	146575
#	153010
#
# Disc length: 2270 seconds
#
# Revision: 0
# Processed by: cddbd v1.5.2PL0 Copyright (c) Steve Scherf et al.
# Submitted via: audiograbber 1.83.01
#
DISCID=c308dc0e
DTITLE=Georges Moustaki - Archives inedites
DYEAR=2018
DGENRE=Chanson francaise
TTITLE0=Les orteils au soleil
TTITLE1=Donne du rhum a ton homme
TTITLE2=Il n'y a plus d'amandes
TTITLE3=De Shangai a Bangkok
TTITLE4=Jean l'Espagnol
TTITLE5=Fleurs de meninge
TTITLE6=La dame brune
TTITLE7=Bebe requin
TTITLE8=Le temps de vivre
TTITLE9=Enfant de la Grece
TTITLE10=Nous sommes deux
TTITLE11=On t'a deja beaucoup menti
TTITLE12=Andreas
TTITLE13=L'homme au coeur blesse
EXTD=
EXTT0=1957 Essai pour signature chez Philips
EXTT1=1957 Essai pour signature chez Philips
EXTT2=1957 Essai pour signature chez Philips
EXTT3=1957 Essai pour signature chez Philips
EXTT4=1957 Essai pour signature chez Philips
EXTT5=Georges Moustaki - Barbara
EXTT6=Georges Moustaki - Barbara
EXTT7=
EXTT8=
EXTT9=
EXTT10=
EXTT11=
EXTT12=
EXTT13=
PLAYORDER=
